<svg viewBox="0 0 148 151" fill="none" xmlns="http://www.w3.org/2000/svg">
<path d="M3.15894 127.3L130.847 53.84C132.516 53.0337 134.412 52.8257 136.217 53.251C138.022 53.6763 139.625 54.7089 140.759 56.1759L146.008 66.0885C146.559 66.8261 146.938 67.6772 147.12 68.5799C147.301 69.4826 147.279 70.4144 147.055 71.3075C146.832 72.2007 146.412 73.0328 145.827 73.7436C145.241 74.4544 144.505 75.026 143.672 75.417L15.9838 149.462C15.1836 149.899 14.3035 150.171 13.396 150.261C12.4884 150.351 11.5721 150.257 10.7016 149.985C9.8311 149.713 9.02421 149.269 8.32904 148.679C7.63388 148.088 7.06467 147.364 6.65534 146.549L0.823043 137.221C0.0167642 135.551 -0.191161 133.655 0.234111 131.851C0.659383 130.046 1.69201 128.442 3.15894 127.308V127.3ZM126.766 45.6718C126.182 48.5842 121.517 47.4238 122.686 44.5039C131.43 13.0217 102.86 34.0075 101.117 14.1827C99.9486 2.51828 111.029 -3.30632 112.197 1.94188C112.781 4.27768 101.7 8.94188 106.948 17.1026C107.944 18.2475 109.218 19.1169 110.647 19.6269C112.076 20.137 113.613 20.2706 115.108 20.015C134.35 19.431 126.773 45.6725 126.773 45.6725L126.766 45.6718ZM118.021 40.4236C118.139 41.0287 118.021 41.6561 117.69 42.1764C117.359 42.6966 116.841 43.0702 116.243 43.2199C115.645 43.3697 115.012 43.2843 114.475 42.9813C113.938 42.6784 113.538 42.1809 113.357 41.5916C109.861 36.3434 103.444 36.9274 103.444 34.5916C103.444 33.4236 104.028 32.2557 105.196 32.2557C110.444 31.0877 116.276 35.752 118.021 40.4157L118.021 40.4236ZM136.094 74.2415C132.598 75.4095 129.094 71.9056 129.678 68.4093C128.327 68.1651 127.11 67.4398 126.252 66.3676C125.395 65.2953 124.955 63.9488 125.014 62.5771L38.1372 112.716L46.2978 126.708L136.087 74.2341L136.094 74.2415Z" fill="black"/>
</svg>

