<svg  viewBox="0 0 210 271" fill="none" xmlns="http://www.w3.org/2000/svg">
<path d="M104.747 63.8446C98.4329 63.8447 92.2608 61.9724 87.0109 58.4646C81.761 54.9568 77.6693 49.9711 75.253 44.1378C72.8368 38.3045 72.2046 31.8857 73.4364 25.6931C74.6682 19.5005 77.7086 13.8122 82.1733 9.34761C86.6379 4.88302 92.3262 1.84262 98.5188 0.610906C104.711 -0.620812 111.13 0.011471 116.964 2.4278C122.797 4.84412 127.783 8.93596 131.29 14.1859C134.798 19.4358 136.67 25.608 136.67 31.9219C136.668 40.3876 133.304 48.5058 127.317 54.492C121.331 60.4781 113.213 63.8422 104.747 63.8446H104.747ZM208.283 73.9228C206.385 69.8669 203.02 66.6822 198.865 65.0117C194.711 63.3412 190.077 63.3094 185.9 64.9228L142.973 82.618H142.961C136.107 85.1127 128.869 86.3936 121.575 86.4031H87.9177C80.6231 86.3936 73.3859 85.1127 66.531 82.618L23.745 64.9813C19.5681 63.3679 14.9345 63.3997 10.78 65.0702C6.62557 66.7407 3.25978 69.9254 1.36235 73.9813C0.456273 76.1057 -0.00773531 78.3924 -0.00140085 80.702C0.00493361 83.0115 0.481478 85.2956 1.39919 87.4151C2.31691 89.5345 3.65657 91.4449 5.33654 93.0297C7.01651 94.6146 9.0016 95.8409 11.1708 96.6337L52.5498 113.755C55.8483 114.96 58.6965 117.15 60.7088 120.028C62.7211 122.906 63.8001 126.333 63.7998 129.845V160.712C63.8088 162.759 63.4516 164.791 62.7451 166.712L23.7451 246.272C22.1242 250.448 22.1523 255.085 23.8235 259.241C25.4948 263.397 28.6843 266.763 32.7451 268.654C34.8696 269.56 37.1563 270.024 39.4658 270.018C41.7754 270.012 44.0595 269.535 46.1789 268.617C48.2984 267.7 50.2087 266.36 51.7936 264.68C53.3785 263 54.6047 261.015 55.3975 258.846L88.6915 194.64C89.8968 191.351 92.083 188.512 94.9544 186.506C97.8258 184.5 101.244 183.424 104.747 183.424C108.249 183.424 111.667 184.5 114.539 186.506C117.41 188.512 119.596 191.351 120.802 194.64L153.979 257.91C155.431 262.141 158.433 265.664 162.38 267.769C166.327 269.874 170.925 270.405 175.248 269.253C177.458 268.578 179.507 267.459 181.27 265.964C183.033 264.47 184.472 262.631 185.5 260.561C186.528 258.491 187.123 256.233 187.248 253.926C187.373 251.618 187.026 249.309 186.228 247.14L146.748 166.563C146.042 164.642 145.685 162.61 145.693 160.563V129.849C145.693 126.337 146.772 122.91 148.785 120.032C150.797 117.154 153.645 114.964 156.943 113.759L198.463 96.579C200.632 95.7852 202.617 94.5587 204.297 92.9739C205.976 91.3891 207.316 89.4791 208.235 87.3603C209.153 85.2414 209.631 82.9578 209.64 80.6484C209.648 78.339 209.187 76.052 208.283 73.9266L208.283 73.9228Z" fill="black"/>
</svg>

