<svg width="136" height="175" viewBox="0 0 136 175" fill="none" xmlns="http://www.w3.org/2000/svg">
<path d="M117.663 140.545H82.7141V62.77H113.637C114.24 62.7754 114.837 62.6608 115.394 62.4328C115.952 62.2049 116.458 61.8681 116.884 61.4421C117.31 61.0162 117.647 60.5097 117.875 59.9522C118.103 59.3947 118.218 58.7973 118.212 58.195V37.7013C118.218 37.099 118.103 36.5017 117.875 35.9441C117.647 35.3866 117.31 34.8801 116.884 34.4542C116.458 34.0283 115.952 33.6915 115.394 33.4636C114.837 33.2356 114.24 33.121 113.637 33.1264H82.7141V4.575C82.7196 3.97269 82.6049 3.37533 82.377 2.8178C82.149 2.26028 81.8122 1.75377 81.3863 1.32785C80.9604 0.901936 80.4538 0.56515 79.8963 0.337163C79.3388 0.109176 78.7414 -0.00544245 78.1391 2.16175e-06H57.6378C57.0355 -0.00544265 56.4382 0.109176 55.8806 0.337164C55.3231 0.565153 54.8166 0.901941 54.3907 1.32786C53.9648 1.75378 53.628 2.26029 53.4 2.81781C53.1721 3.37533 53.0575 3.97269 53.0629 4.575V33.3039H22.3246C21.7223 33.2985 21.125 33.4131 20.5674 33.6411C20.0099 33.869 19.5034 34.2058 19.0775 34.6317C18.6516 35.0576 18.3148 35.5641 18.0868 36.1216C17.8588 36.6791 17.7442 37.2765 17.7496 37.8788V58.3728C17.7442 58.9751 17.8588 59.5725 18.0868 60.13C18.3148 60.6875 18.6516 61.194 19.0775 61.62C19.5034 62.0459 20.0099 62.3827 20.5674 62.6106C21.1249 62.8386 21.7223 62.9532 22.3246 62.9478H53.2477V140.909H18.1138C15.7322 140.899 13.3721 141.36 11.1698 142.267C8.96753 143.173 6.9666 144.507 5.28252 146.191C3.59845 147.875 2.26458 149.876 1.3579 152.079C0.451218 154.281 -0.0103197 156.641 -7.73354e-05 159.023V174.213H135.598V159.023C135.635 156.631 135.2 154.256 134.318 152.033C133.437 149.81 132.126 147.782 130.46 146.066C128.794 144.35 126.807 142.979 124.611 142.031C122.415 141.084 120.054 140.578 117.663 140.544L117.663 140.545Z" fill="black"/>
</svg>

